TITLE ""
FILE "DISC2Track22.mp3" MP3
  TRACK 01 AUDIO
    TITLE "DISC2Track22_01"
    INDEX 01 00:00:00
  TRACK 02 AUDIO
    TITLE "DISC2Track22_02"
    INDEX 01 00:01:53
  TRACK 03 AUDIO
    TITLE "DISC2Track22_03"
    INDEX 01 00:01:69
  TRACK 04 AUDIO
    TITLE "DISC2Track22_04"
    INDEX 01 00:04:34
  TRACK 05 AUDIO
    TITLE "DISC2Track22_05"
    INDEX 01 00:07:57
  TRACK 06 AUDIO
    TITLE "DISC2Track22_06"
    INDEX 01 00:10:48
  TRACK 07 AUDIO
    TITLE "DISC2Track22_07"
    INDEX 01 00:10:64
  TRACK 08 AUDIO
    TITLE "DISC2Track22_08"
    INDEX 01 00:15:10
  TRACK 09 AUDIO
    TITLE "DISC2Track22_09"
    INDEX 01 00:19:45
  TRACK 10 AUDIO
    TITLE "DISC2Track22_10"
    INDEX 01 00:23:54
  TRACK 11 AUDIO
    TITLE "DISC2Track22_11"
    INDEX 01 00:23:70
  TRACK 12 AUDIO
    TITLE "DISC2Track22_12"
    INDEX 01 00:27:66
  TRACK 13 AUDIO
    TITLE "DISC2Track22_13"
    INDEX 01 00:30:68
  TRACK 14 AUDIO
    TITLE "DISC2Track22_14"
    INDEX 01 00:33:37
  TRACK 15 AUDIO
    TITLE "DISC2Track22_15"
    INDEX 01 00:33:55
  TRACK 16 AUDIO
    TITLE "DISC2Track22_16"
    INDEX 01 00:37:58
  TRACK 17 AUDIO
    TITLE "DISC2Track22_17"
    INDEX 01 00:41:41
  TRACK 18 AUDIO
    TITLE "DISC2Track22_18"
    INDEX 01 00:44:64
  TRACK 19 AUDIO
    TITLE "DISC2Track22_19"
    INDEX 01 00:45:05
  TRACK 20 AUDIO
    TITLE "DISC2Track22_20"
    INDEX 01 00:48:56
  TRACK 21 AUDIO
    TITLE "DISC2Track22_21"
    INDEX 01 00:51:31
  TRACK 22 AUDIO
    TITLE "DISC2Track22_22"
    INDEX 01 00:53:63
  TRACK 23 AUDIO
    TITLE "DISC2Track22_23"
    INDEX 01 00:54:04
  TRACK 24 AUDIO
    TITLE "DISC2Track22_24"
    INDEX 01 00:55:45
  TRACK 25 AUDIO
    TITLE "DISC2Track22_25"
    INDEX 01 00:57:55
  TRACK 26 AUDIO
    TITLE "DISC2Track22_26"
    INDEX 01 00:59:37
  TRACK 27 AUDIO
    TITLE "DISC2Track22_27"
    INDEX 01 00:59:52
  TRACK 28 AUDIO
    TITLE "DISC2Track22_28"
    INDEX 01 01:02:68
  TRACK 29 AUDIO
    TITLE "DISC2Track22_29"
    INDEX 01 01:05:63
  TRACK 30 AUDIO
    TITLE "DISC2Track22_30"
    INDEX 01 01:08:22
  TRACK 31 AUDIO
    TITLE "DISC2Track22_31"
    INDEX 01 01:08:37
  TRACK 32 AUDIO
    TITLE "DISC2Track22_32"
    INDEX 01 01:14:44
  TRACK 33 AUDIO
    TITLE "DISC2Track22_33"
    INDEX 01 01:19:18
  TRACK 34 AUDIO
    TITLE "DISC2Track22_34"
    INDEX 01 01:23:43
  TRACK 35 AUDIO
    TITLE "DISC2Track22_35"
    INDEX 01 01:23:59
  TRACK 36 AUDIO
    TITLE "DISC2Track22_36"
    INDEX 01 01:26:69
  TRACK 37 AUDIO
    TITLE "DISC2Track22_37"
    INDEX 01 01:30:35
  TRACK 38 AUDIO
    TITLE "DISC2Track22_38"
    INDEX 01 01:33:45
  TRACK 39 AUDIO
    TITLE "DISC2Track22_39"
    INDEX 01 01:33:61
  TRACK 40 AUDIO
    TITLE "DISC2Track22_40"
    INDEX 01 01:36:51
  TRACK 41 AUDIO
    TITLE "DISC2Track22_41"
    INDEX 01 01:39:44
  TRACK 42 AUDIO
    TITLE "DISC2Track22_42"
    INDEX 01 01:41:74
  TRACK 43 AUDIO
    TITLE "DISC2Track22_43"
    INDEX 01 01:42:17
  TRACK 44 AUDIO
    TITLE "DISC2Track22_44"
    INDEX 01 01:45:48
  TRACK 45 AUDIO
    TITLE "DISC2Track22_45"
    INDEX 01 01:48:39
  TRACK 46 AUDIO
    TITLE "DISC2Track22_46"
    INDEX 01 01:50:69
